<?xml version="1.0" encoding="utf-8"?>
<!-- Generator: Adobe Illustrator 20.1.0, SVG Export Plug-In . SVG Version: 6.00 Build 0)  -->
<svg version="1.1" id="Layer_1" xmlns="http://www.w3.org/2000/svg" xmlns:xlink="http://www.w3.org/1999/xlink" x="0px" y="0px"
	 width="32px" height="32px" viewBox="0 0 32 32" style="enable-background:new 0 0 32 32;" xml:space="preserve">
<style type="text/css">
	.st0{fill:#FFFFFF;}
</style>
<g>
	<path class="st0" d="M16,0C7.2,0,0,7.2,0,16s7.2,16,16,16s16-7.2,16-16S24.8,0,16,0z M12,23.8H8v-14h4V23.8z M10.1,8.9
		c-1,0-1.9-0.8-1.9-1.9c0-1,0.8-1.9,1.9-1.9c1,0,1.9,0.8,1.9,1.9S11.2,8.9,10.1,8.9z M26,23.8h-4v-8.7c0-1-0.3-1.7-1.5-1.7
		c-2.1,0-2.5,1.7-2.5,1.7v8.7h-4v-14h4v1.3c0.6-0.4,2-1.3,4-1.3c1.3,0,4,0.8,4,5.5V23.8z"/>
</g>
</svg>
